# File created by Blade
# Date/Time:  Fri Jan 16 19:32:17 2015
# Frame Rate: 120.000 fps
#------------------------------------------------------
:FULLY-SPECIFIED
:DEGREES
1099
root 19.501278 35.492531 -20.889891 11.022044 8.072384 -0.405322
Spine -23.011947 -4.001569 1.262508
Head 9.443387 15.291477 3.941824
LeftShoulder -11.073840 -30.652024 18.434711
LeftArm 10.151512 11.945048 -5.749642
LeftForeArm 21.022492 -0.000000 1.890039
LeftHand -5.736538 -0.000000 1.458581
LeftHandThumb1 -26.253704 0.000000 33.147579
RightShoulder -9.492135 -1.838942 -14.064475
RightArm -357.844532 44.439704 -349.375001
RightForeArm -35.588872 0.000000 2.828526
RightHand -4.201617 0.000000 7.487113
RightHandThumb1 -24.326973 -0.000000 -32.862282
LeftUpLeg -3.069859 3.026835 1.203357
LeftLeg -6.809796 -0.000000 0.000000
LeftFoot -19.294266 27.766872 -12.206471
LeftToeBase 26.028272 -0.000000 -0.000000
RightUpLeg -1.348548 -14.487837 -0.399958
RightLeg -4.849769 -0.000000 0.000000
RightFoot -21.551652 -24.467292 18.120861
RightToeBase 24.944479 -0.000000 -0.000000
1100
root 19.503662 35.492197 -20.888089 11.024531 8.042544 -0.403430
Spine -22.991915 -3.969237 1.238341
Head 9.412695 14.540263 3.894619
LeftShoulder -11.084333 -30.663933 18.467534
LeftArm 10.133093 11.876080 -5.762754
LeftForeArm 21.010256 0.000000 1.895585
LeftHand -5.736470 -0.000000 1.424961
LeftHandThumb1 -26.253704 0.000000 33.147579
RightShoulder -9.503247 -1.857528 -14.038040
RightArm -357.773651 44.351712 -349.357772
RightForeArm -35.418385 -0.000000 2.776540
RightHand -4.214868 -0.000000 7.538498
RightHandThumb1 -24.326973 -0.000000 -32.862282
LeftUpLeg -3.064511 3.029872 1.194420
LeftLeg -6.807457 -0.000000 0.000000
LeftFoot -19.307057 27.788036 -12.226395
LeftToeBase 26.024532 -0.000000 -0.000000
RightUpLeg -1.352733 -14.477852 -0.408080
RightLeg -4.846610 -0.000000 0.000000
RightFoot -21.544863 -24.455304 18.106111
RightToeBase 24.935013 -0.000000 -0.000000
1101
root 19.506394 35.492351 -20.886578 11.031717 8.009644 -0.403205
Spine -22.987491 -3.933935 1.223335
Head 9.413874 13.765901 3.828778
LeftShoulder -11.085871 -30.678569 18.484240
LeftArm 10.109746 11.812781 -5.762161
LeftForeArm 20.999288 0.000000 1.914606
LeftHand -5.742340 -0.000000 1.342029
LeftHandThumb1 -26.253704 0.000000 33.147579
RightShoulder -9.498523 -1.858868 -14.017817
RightArm -357.759776 44.322179 -349.373337
RightForeArm -35.401129 -0.000000 2.767286
RightHand -4.189682 -0.000000 7.564750
RightHandThumb1 -24.326973 -0.000000 -32.862282
LeftUpLeg -3.059812 3.027542 1.189859
LeftLeg -6.811761 -0.000000 0.000000
LeftFoot -19.316331 27.812736 -12.223616
LeftToeBase 26.083543 -0.000000 -0.000000
RightUpLeg -1.362568 -14.428399 -0.420326
RightLeg -4.842274 -0.000000 0.000000
RightFoot -21.545265 -24.466432 18.114105
RightToeBase 24.932647 -0.000000 -0.000000
1102
root 19.508231 35.492298 -20.884123 11.035748 7.979365 -0.407874
Spine -22.977908 -3.908847 1.216141
Head 9.396344 13.002521 3.761293
LeftShoulder -11.112620 -30.662617 18.501499
LeftArm 10.130073 11.754470 -5.754070
LeftForeArm 21.000559 -0.000000 1.894121
LeftHand -5.748022 -0.000000 1.297990
LeftHandThumb1 -26.253704 0.000000 33.147579
RightShoulder -9.490170 -1.861418 -13.989111
RightArm -357.734868 44.297602 -349.394978
RightForeArm -35.364580 -0.000000 2.727164
RightHand -4.163435 -0.000000 7.556338
RightHandThumb1 -24.326973 -0.000000 -32.862282
LeftUpLeg -3.060135 3.069995 1.184228
LeftLeg -6.806921 -0.000000 0.000000
LeftFoot -19.321076 27.802668 -12.235043
LeftToeBase 25.984886 -0.000000 -0.000000
RightUpLeg -1.364872 -14.406249 -0.421023
RightLeg -4.847922 -0.000000 0.000000
RightFoot -21.539028 -24.464955 18.116445
RightToeBase 24.950970 -0.000000 -0.000000
1103
root 19.510871 35.492355 -20.882149 11.041128 7.959521 -0.407470
Spine -22.973631 -3.889488 1.207386
Head 9.409964 12.327243 3.703106
LeftShoulder -11.118815 -30.639872 18.508502
LeftArm 10.131439 11.698015 -5.747501
LeftForeArm 21.033424 -0.000000 1.889989
LeftHand -5.757063 0.000000 1.252688
LeftHandThumb1 -26.253704 0.000000 33.147579
RightShoulder -9.484791 -1.867923 -13.970426
RightArm -357.723368 44.283966 -349.397957
RightForeArm -35.347064 -0.000000 2.743119
RightHand -4.167974 -0.000000 7.571442
RightHandThumb1 -24.326973 -0.000000 -32.862282
LeftUpLeg -3.060117 3.083224 1.176773
LeftLeg -6.804562 -0.000000 0.000000
LeftFoot -19.331598 27.804334 -12.244757
LeftToeBase 25.957685 -0.000000 -0.000000
RightUpLeg -1.369989 -14.405738 -0.425830
RightLeg -4.848469 -0.000000 0.000000
RightFoot -21.522260 -24.406562 18.181678
RightToeBase 24.783908 -0.000000 -0.000000
1104
root 19.513112 35.492039 -20.880548 11.045756 7.939919 -0.405980
Spine -22.965039 -3.869995 1.192665
Head 9.419669 11.633372 3.643636
LeftShoulder -11.123398 -30.639032 18.519009
LeftArm 10.114929 11.653352 -5.733242
LeftForeArm 21.036421 -0.000000 1.915764
LeftHand -5.764297 -0.000000 1.165841
LeftHandThumb1 -26.253704 0.000000 33.147579
RightShoulder -9.492304 -1.882226 -13.945069
RightArm -357.685183 44.306634 -349.389022
RightForeArm -35.353674 -0.000000 2.724337
RightHand -4.107561 0.000000 7.561856
RightHandThumb1 -24.326973 -0.000000 -32.862282
LeftUpLeg -3.059878 3.103006 1.168509
LeftLeg -6.799891 -0.000000 0.000000
LeftFoot -19.346753 27.803327 -12.249727
LeftToeBase 26.025235 -0.000000 -0.000000
RightUpLeg -1.375753 -14.383211 -0.433046
RightLeg -4.845716 -0.000000 0.000000
RightFoot -21.542536 -24.447712 18.137495
RightToeBase 24.943025 -0.000000 -0.000000
1105
root 19.515828 35.491956 -20.878702 11.048596 7.914239 -0.407793
Spine -22.963506 -3.830704 1.178244
Head 9.459540 10.944507 3.583459
LeftShoulder -11.113153 -30.596053 18.514580
LeftArm 10.124611 11.589248 -5.725814
LeftForeArm 21.038109 -0.000000 1.915779
LeftHand -5.776577 -0.000000 1.112148
LeftHandThumb1 -26.253704 0.000000 33.147579
RightShoulder -9.480499 -1.892286 -13.923312
RightArm -357.714728 44.339313 -349.415390
RightForeArm -35.365807 0.000000 2.752473
RightHand -4.090214 -0.000000 7.605257
RightHandThumb1 -24.326973 -0.000000 -32.862282
LeftUpLeg -3.053620 3.116875 1.162059
LeftLeg -6.804262 -0.000000 0.000000
LeftFoot -19.342777 27.815617 -12.233718
LeftToeBase 25.987154 -0.000000 -0.000000
RightUpLeg -1.381221 -14.367327 -0.438882
RightLeg -4.841302 -0.000000 0.000000
RightFoot -21.537926 -24.448790 18.123203
RightToeBase 24.956825 -0.000000 -0.000000
1106
root 19.518679 35.491979 -20.877036 11.060349 7.890300 -0.398120
Spine -22.969769 -3.805125 1.151457
Head 9.490326 10.260882 3.537296
LeftShoulder -11.101645 -30.594963 18.519644
LeftArm 10.121835 11.601234 -5.706384
LeftForeArm 20.986898 -0.000000 1.898004
LeftHand -5.770796 -0.000000 1.064785
LeftHandThumb1 -26.253704 0.000000 33.147579
RightShoulder -9.470382 -1.909292 -13.893616
RightArm -357.728100 44.398148 -349.418678
RightForeArm -35.403855 -0.000000 2.804111
RightHand -4.142131 0.000000 7.614525
RightHandThumb1 -24.326973 -0.000000 -32.862282
LeftUpLeg -3.057128 3.146478 1.133894
LeftLeg -6.819330 -0.000000 0.000000
LeftFoot -19.316784 27.886938 -12.212603
LeftToeBase 25.993675 -0.000000 -0.000000
RightUpLeg -1.392011 -14.357121 -0.453179
RightLeg -4.842756 -0.000000 0.000000
RightFoot -21.530375 -24.447748 18.110848
RightToeBase 24.932516 -0.000000 -0.000000
1107
root 19.520879 35.491367 -20.874679 11.064487 7.876691 -0.399709
Spine -22.966277 -3.790741 1.144651
Head 9.519744 9.574096 3.439097
LeftShoulder -11.111928 -30.613578 18.540963
LeftArm 10.112486 11.604736 -5.702179
LeftForeArm 20.971296 -0.000000 1.901266
LeftHand -5.759860 -0.000000 0.984514
LeftHandThumb1 -26.253704 0.000000 33.147579
RightShoulder -9.461275 -1.901166 -13.880882
RightArm -357.737498 44.424222 -349.418636
RightForeArm -35.405100 0.000000 2.832938
RightHand -4.174542 0.000000 7.640551
RightHandThumb1 -24.326973 -0.000000 -32.862282
LeftUpLeg -3.056478 3.180801 1.135108
LeftLeg -6.803932 -0.000000 0.000000
LeftFoot -19.349478 27.792895 -12.247038
LeftToeBase 25.929619 -0.000000 -0.000000
RightUpLeg -1.394916 -14.361316 -0.453426
RightLeg -4.844904 -0.000000 0.000000
RightFoot -21.527606 -24.447055 18.099736
RightToeBase 24.940208 -0.000000 -0.000000
1108
root 19.524097 35.491700 -20.872968 11.073745 7.861936 -0.389356
Spine -22.970289 -3.765532 1.121205
Head 9.534043 8.970291 3.383726
LeftShoulder -11.100512 -30.603490 18.537171
LeftArm 10.115726 11.584792 -5.689875
LeftForeArm 20.957012 0.000000 1.893855
LeftHand -5.758375 0.000000 0.928068
LeftHandThumb1 -26.253704 0.000000 33.147579
RightShoulder -9.464236 -1.910654 -13.858288
RightArm -357.731742 44.446289 -349.415260
RightForeArm -35.402720 -0.000000 2.846001
RightHand -4.241567 -0.000000 7.621778
RightHandThumb1 -24.326973 -0.000000 -32.862282
LeftUpLeg -3.059774 3.187027 1.119159
LeftLeg -6.800245 -0.000000 0.000000
LeftFoot -19.354042 27.783302 -12.264525
LeftToeBase 25.998802 -0.000000 -0.000000
RightUpLeg -1.401384 -14.347928 -0.472408
RightLeg -4.840033 -0.000000 0.000000
RightFoot -21.538188 -24.428821 18.111572
RightToeBase 24.979652 -0.000000 -0.000000
1109
root 19.526562 35.491528 -20.871729 11.091659 7.849783 -0.385283
Spine -22.983516 -3.740904 1.103567
Head 9.579106 8.327308 3.321533
LeftShoulder -11.086199 -30.586060 18.533939
LeftArm 10.113339 11.552593 -5.678931
LeftForeArm 20.935362 -0.000000 1.898805
LeftHand -5.779457 -0.000000 0.858614
LeftHandThumb1 -26.253704 0.000000 33.147579
RightShoulder -9.471876 -1.908949 -13.838496
RightArm -357.704186 44.421159 -349.408858
RightForeArm -35.365043 -0.000000 2.803794
RightHand -4.237783 -0.000000 7.583693
RightHandThumb1 -24.326973 -0.000000 -32.862282
LeftUpLeg -3.071861 3.204234 1.106838
LeftLeg -6.804320 -0.000000 0.000000
LeftFoot -19.360621 27.785601 -12.269286
LeftToeBase 25.953311 -0.000000 -0.000000
RightUpLeg -1.421645 -14.345245 -0.475967
RightLeg -4.837133 -0.000000 0.000000
RightFoot -21.525229 -24.445028 18.082794
RightToeBase 24.972140 -0.000000 -0.000000
1110
root 19.530604 35.490839 -20.867046 11.101069 7.803307 -0.378927
Spine -22.998842 -3.693802 1.082875
Head 9.628692 7.672805 3.218509
LeftShoulder -11.088732 -30.590105 18.556980
LeftArm 10.093238 11.551323 -5.687983
LeftForeArm 20.936461 -0.000000 1.908014
LeftHand -5.804449 0.000000 0.804375
LeftHandThumb1 -26.253704 0.000000 33.147579
RightShoulder -9.464272 -1.905646 -13.830688
RightArm -357.701298 44.414614 -349.397976
RightForeArm -35.340273 -0.000000 2.803291
RightHand -4.208772 -0.000000 7.592135
RightHandThumb1 -24.326973 -0.000000 -32.862282
LeftUpLeg -3.053441 3.264468 1.085621
LeftLeg -6.827815 -0.000000 0.000000
LeftFoot -19.355930 27.766990 -12.286398
LeftToeBase 25.961401 -0.000000 -0.000000
RightUpLeg -1.428945 -14.317251 -0.495117
RightLeg -4.832139 -0.000000 0.000000
RightFoot -21.529115 -24.426421 18.072935
RightToeBase 24.966659 -0.000000 -0.000000
